<svg width="12" height="16" xmlns="http://www.w3.org/2000/svg"><path d="M5.924 0c-.648 0-1.185.504-1.185 1.113v1.27c-2.037.5-3.554 2.23-3.554 4.294v4.433s-.02.31-.176.596c-.157.29-.347.534-1.009.534v1.113h11.848V12.24c-.704 0-.884-.243-1.032-.522-.148-.282-.153-.586-.153-.586V6.677c0-2.065-1.518-3.795-3.554-4.295v-1.27C7.109.505 6.572 0 5.924 0zm0 13.353c-.653 0-1.185.5-1.185 1.113s.532 1.113 1.185 1.113 1.185-.5 1.185-1.113-.532-1.113-1.185-1.113zm0-10.015c1.971 0 3.554 1.487 3.554 3.339v4.446s-.014.531.277 1.083c.005.012.015.021.02.034H2.045c.004-.009.013-.017.018-.022.296-.547.306-1.073.306-1.073V6.677c0-1.852 1.582-3.339 3.554-3.339z" fill="#000" fill-rule="evenodd"/></svg>