<svg width="18" height="16" xmlns="http://www.w3.org/2000/svg"><path d="M4.974 0C2.454 0 .38 1.933.068 4.411A3.076 3.076 0 0 0 0 5.064c0 2.894 2.171 5.506 4.246 7.444a29.465 29.465 0 0 0 4.138 3.225l.321.202.32-.202s2.07-1.281 4.144-3.225c2.07-1.938 4.24-4.55 4.24-7.444a3.29 3.29 0 0 0-.062-.643C17.03 1.933 14.96 0 12.436 0 10.89 0 9.613.82 8.705 1.949 7.797.82 6.519 0 4.975 0zm0 1.266c1.37 0 2.546.752 3.196 1.87l.535.92.535-.92c.65-1.118 1.825-1.87 3.196-1.87 1.909 0 3.453 1.45 3.682 3.334l.01.05c.023.118.038.251.038.414 0 2.216-1.87 4.67-3.842 6.515-1.807 1.695-3.333 2.64-3.619 2.823-.286-.183-1.812-1.128-3.624-2.823C3.114 9.734 1.244 7.28 1.244 5.064c0-.168.014-.3.038-.415l.01-.03v-.03c.234-1.873 1.773-3.323 3.682-3.323z" fill="#000" fill-rule="evenodd"/></svg>