<svg width="18" height="16" xmlns="http://www.w3.org/2000/svg"><path d="M14.154 0a3.086 3.086 0 0 0-3.077 3.077c0 .212.025.413.063.615l-5.577 2.51a3.087 3.087 0 0 0-2.486-1.279A3.086 3.086 0 0 0 0 8a3.086 3.086 0 0 0 3.077 3.077 3.074 3.074 0 0 0 2.495-1.294l5.581 2.482a2.975 2.975 0 0 0-.076.658A3.086 3.086 0 0 0 14.154 16a3.086 3.086 0 0 0 3.077-3.077 3.086 3.086 0 0 0-3.077-3.077 3.074 3.074 0 0 0-2.495 1.294L6.078 8.663c.048-.216.076-.437.076-.663a3.11 3.11 0 0 0-.076-.673l5.547-2.51a3.075 3.075 0 0 0 2.529 1.337 3.086 3.086 0 0 0 3.077-3.077A3.086 3.086 0 0 0 14.154 0zm0 1.23c1.029 0 1.846.818 1.846 1.847a1.834 1.834 0 0 1-1.846 1.846 1.834 1.834 0 0 1-1.846-1.846c0-1.029.817-1.846 1.846-1.846zM3.077 6.155c1.029 0 1.846.817 1.846 1.846a1.834 1.834 0 0 1-1.846 1.846A1.834 1.834 0 0 1 1.23 8c0-1.029.817-1.846 1.846-1.846zm11.077 4.923c1.029 0 1.846.817 1.846 1.846a1.834 1.834 0 0 1-1.846 1.846 1.834 1.834 0 0 1-1.846-1.846c0-1.029.817-1.846 1.846-1.846z" fill="#000" fill-rule="evenodd"/></svg>